<svg width="32" height="32" viewBox="0 0 32 32" fill="none" xmlns="http://www.w3.org/2000/svg">
  <rect width="32" height="32" rx="8" fill="#0f172a"/>
  <g transform="translate(1, 0) scale(0.97)">
    <path fill-rule="evenodd" clip-rule="evenodd" d="M14.6525 25.4733C14.8891 25.4805 15.1305 25.4233 15.3497 25.2946L21.6002 21.6256C22.2202 21.2616 22.4278 20.464 22.0638 19.844C21.6999 19.224 20.9023 19.0164 20.2823 19.3804L14.6606 22.6803L9.22946 19.4116L9.29199 13.359L14.9542 10.2784L20.0752 13.2027C20.6995 13.5591 21.4946 13.342 21.8511 12.7177C22.2075 12.0934 21.9904 11.2983 21.3661 10.9419L15.6282 7.66531C15.292 7.47333 14.9062 7.4477 14.5661 7.56244C14.4744 7.58835 14.3841 7.62481 14.2969 7.67227L7.45017 11.3972C7.20307 11.5317 7.01692 11.7345 6.90243 11.9695C6.7739 12.1689 6.69827 12.4058 6.69564 12.6605L6.61079 20.8741L13.9434 25.2873C14.1655 25.4209 14.4114 25.4805 14.6525 25.4733Z" fill="#4A6DFF"/>
    <path fill-rule="evenodd" clip-rule="evenodd" d="M19.815 12.5707C19.4764 11.9365 19.7161 11.148 20.3503 10.8094L26.674 7.43385C27.3083 7.09531 28.0968 7.335 28.4354 7.96922C28.7739 8.60344 28.5342 9.39201 27.9 9.73055L21.5763 13.1061C20.9421 13.4447 20.1535 13.205 19.815 12.5707Z" fill="#4A6DFF"/>
    <path fill-rule="evenodd" clip-rule="evenodd" d="M14.1965 32.8683C14.5709 33.0504 15.0261 33.0501 15.4146 32.8273L28.8547 25.1188L28.8546 16.2875C28.8546 15.5686 28.2718 14.9858 27.5529 14.9858C26.834 14.9858 26.2512 15.5686 26.2512 16.2875L26.2512 23.6107L14.7386 30.2137L2.60764 23.1953L2.67572 9.7L15.0133 2.8026L25.5762 9.12672L26.6599 9.72275C27.2899 10.0692 28.0814 9.83941 28.4278 9.20949C28.7743 8.57956 28.5445 7.78804 27.9146 7.44159L26.8727 6.86856L15.816 0.248802C15.7812 0.227947 15.7457 0.208912 15.7099 0.191669C15.3216 -0.0455704 14.8202 -0.0720558 14.3947 0.165768L0.818699 7.75554C0.818293 7.75576 0.817886 7.75599 0.81748 7.75622C0.381189 7.96464 0.0787754 8.40895 0.0761738 8.9249L5.53131e-05 24.0134C-0.00317574 24.6541 0.457012 25.189 1.06605 25.3004C1.10749 25.3315 1.15123 25.3605 1.19721 25.3871L13.9217 32.7488C14.0103 32.8001 14.1025 32.8398 14.1965 32.8683Z" fill="#2EB9FF"/>
  </g>
</svg>
