<svg width="22" height="25" viewBox="0 0 22 25" fill="none" xmlns="http://www.w3.org/2000/svg">
  <path fill-rule="evenodd" clip-rule="evenodd" d="M11.0289 19.1739C11.207 19.1793 11.3887 19.1362 11.5537 19.0394L16.2585 16.2777C16.7251 16.0038 16.8814 15.4034 16.6075 14.9367C16.3335 14.47 15.7331 14.3138 15.2665 14.5877L11.035 17.0716L6.94695 14.6112L6.99402 10.0554L11.256 7.73664L15.1106 9.93771C15.5805 10.206 16.179 10.0426 16.4473 9.57271C16.7156 9.1028 16.5522 8.50433 16.0823 8.236L11.7633 5.76973C11.5102 5.62522 11.2199 5.60593 10.9639 5.69229C10.8948 5.7118 10.8269 5.73923 10.7612 5.77496L5.60767 8.57877C5.42167 8.67996 5.28156 8.83265 5.19538 9.00953C5.09863 9.15959 5.04171 9.33789 5.03973 9.52962L4.97586 15.7121L10.4952 19.0339C10.6623 19.1345 10.8474 19.1793 11.0289 19.1739Z" fill="#4A6DFF"/>
  <path fill-rule="evenodd" clip-rule="evenodd" d="M14.9148 9.46208C14.66 8.9847 14.8404 8.39113 15.3178 8.13631L20.0776 5.59551C20.555 5.34069 21.1486 5.52111 21.4034 5.99848C21.6582 6.47586 21.4778 7.06943 21.0004 7.32425L16.2405 9.86505C15.7632 10.1199 15.1696 9.93946 14.9148 9.46208Z" fill="#4A6DFF"/>
  <path fill-rule="evenodd" clip-rule="evenodd" d="M10.6857 24.7401C10.9676 24.8772 11.3102 24.877 11.6026 24.7093L21.719 18.907L21.719 12.2597C21.719 11.7185 21.2803 11.2799 20.7392 11.2799C20.198 11.2799 19.7593 11.7185 19.7594 12.2597L19.7594 17.7719L11.0938 22.742L1.96272 17.4593L2.01396 7.30124L11.3005 2.10954L19.2513 6.86973L20.067 7.31837C20.5412 7.57915 21.1369 7.40618 21.3977 6.93203C21.6585 6.45788 21.4855 5.8621 21.0114 5.60132L20.2272 5.17L11.9047 0.187277C11.8785 0.171581 11.8518 0.157251 11.8248 0.144272C11.5326 -0.0342999 11.1551 -0.0542355 10.8349 0.124777L0.616169 5.83763C0.615864 5.8378 0.615557 5.83798 0.615252 5.83815C0.286852 5.99503 0.0592251 6.32947 0.0572662 6.71782L-2.86102e-05 18.075C-0.00246048 18.5573 0.343927 18.9599 0.802355 19.0437C0.833546 19.0671 0.866468 19.089 0.901075 19.109L10.4788 24.6502C10.5456 24.6888 10.615 24.7187 10.6857 24.7401Z" fill="#2EB9FF"/>
</svg>
